nColumns=19
nRows=39
DataType=double
version=3
OpenSimVersion=4.1
endheader
time	ground_force_1_vx	ground_force_1_vy	ground_force_1_vz	ground_force_1_px	ground_force_1_py	ground_force_1_pz	ground_force_1_mx	ground_force_1_my	ground_force_1_mz	ground_force_2_vx	ground_force_2_vy	ground_force_2_vz	ground_force_2_px	ground_force_2_py	ground_force_2_pz	ground_force_2_mx	ground_force_2_my	ground_force_2_mz
0	-43.0667	283.265	15.6825	0.116734	0.006	-0.19919	0	0.078583	0	0	0	0	0.707201	0	-0.243244	0	0	0
0.01	-54.2392	312.056	12.7385	0.121753	0.006	-0.198629	0	0.050843	0	0	0	0	0.707201	0	-0.243244	0	0	0
0.02	-66.1549	344.616	9.22454	0.127599	0.006	-0.197932	0	0.042878	0	0	0	0	0.707201	0	-0.243244	0	0	0
0.03	-78.429	380.278	5.14509	0.133235	0.006	-0.197213	0	0.056556	0	0	0	0	0.707201	0	-0.243244	0	0	0
0.04	-90.6143	418.102	0.560312	0.13855	0.006	-0.196498	0	0.091567	0	0	0	0	0.707201	0	-0.243244	0	0	0
0.05	-102.207	456.903	-4.39205	0.143465	0.006	-0.195814	0	0.148032	0	0	0	0	0.707201	0	-0.243244	0	0	0
0.06	-112.695	495.364	-9.50805	0.147934	0.006	-0.195185	0	0.226419	0	0	0	0	0.707201	0	-0.243244	0	0	0
0.07	-121.642	532.243	-14.564	0.15195	0.006	-0.194627	0	0.324152	0	0	0	0	0.707201	0	-0.243244	0	0	0
0.08	-128.74	566.501	-19.3484	0.155534	0.006	-0.194147	0	0.435166	0	0	0	0	0.707201	0	-0.243244	0	0	0
0.09	-133.796	597.292	-23.6716	0.158722	0.006	-0.193747	0	0.552028	0	0	0	0	0.707201	0	-0.243244	0	0	0
0.1	-136.727	623.92	-27.3816	0.16156	0.006	-0.193422	0	0.666883	0	0	0	0	0.707201	0	-0.243244	0	0	0
0.11	-137.546	645.817	-30.3816	0.164101	0.006	-0.193162	0	0.771428	0	0	0	0	0.707201	0	-0.243244	0	0	0
0.12	-136.346	662.541	-32.6352	0.1664	0.006	-0.192952	0	0.857815	0	0	0	0	0.707201	0	-0.243244	0	0	0
0.13	-133.304	673.793	-34.1613	0.168518	0.006	-0.192771	0	0.919685	0	0	0	0	0.707201	0	-0.243244	0	0	0
0.14	-128.658	679.444	-35.0194	0.170517	0.006	-0.192598	0	0.952984	0	0	0	0	0.707201	0	-0.243244	0	0	0
0.15	-122.691	679.572	-35.2954	0.172461	0.006	-0.192409	0	0.956114	0	0	0	0	0.707201	0	-0.243244	0	0	0
0.16	-115.708	674.481	-35.0873	0.174409	0.006	-0.192181	0	0.929674	0	0	0	0	0.707201	0	-0.243244	0	0	0
0.17	-108.011	664.682	-34.4901	0.176414	0.006	-0.191897	0	0.875867	0	0	0	0	0.707201	0	-0.243244	0	0	0
0.18	-99.8787	650.863	-33.5898	0.178518	0.006	-0.19154	0	0.797716	0	0	0	0	0.707201	0	-0.243244	0	0	0
0.19	-91.5528	633.836	-32.4625	0.180755	0.006	-0.191099	0	0.698513	0	0	0	0	0.707201	0	-0.243244	0	0	0
0.2	-83.2368	614.484	-31.1762	0.183148	0.006	-0.190566	0	0.581318	0	0	0	0	0.707201	0	-0.243244	0	0	0
0.21	-75.1013	593.704	-29.7925	0.185718	0.006	-0.189935	0	0.448696	0	0	0	0	0.707201	0	-0.243244	0	0	0
0.22	-67.2897	572.374	-28.3685	0.188478	0.006	-0.189206	0	0.302737	0	0	0	0	0.707201	0	-0.243244	0	0	0
0.23	-59.9192	551.315	-26.958	0.191439	0.006	-0.18838	0	0.145117	0	0	0	0	0.707201	0	-0.243244	0	0	0
0.24	-53.08	531.269	-25.6114	0.194608	0.006	-0.187465	0	-0.02272	0	0	0	0	0.707201	0	-0.243244	0	0	0
0.25	-46.8343	512.88	-24.3745	0.197984	0.006	-0.186474	0	-0.19937	0	0	0	0	0.707201	0	-0.243244	0	0	0
0.26	-41.2133	496.681	-23.2861	0.201556	0.006	-0.185424	0	-0.383409	0	0	0	0	0.707201	0	-0.243244	0	0	0
0.27	-36.2154	483.091	-22.3763	0.205301	0.006	-0.184341	0	-0.573608	0	0	0	0	0.707201	0	-0.243244	0	0	0
0.28	-31.805	472.415	-21.6642	0.209182	0.006	-0.183255	0	-0.769132	0	0	0	0	0.707201	0	-0.243244	0	0	0
0.29	-27.9156	464.852	-21.1584	0.213147	0.006	-0.1822	0	-0.969584	0	0	0	0	0.707201	0	-0.243244	0	0	0
0.3	-24.4571	460.499	-20.858	0.21714	0.006	-0.181206	0	-1.17498	0	0	0	0	0.707201	0	-0.243244	0	0	0
0.31	-21.3244	459.365	-20.7545	0.221106	0.006	-0.1803	0	-1.3856	0	0	0	0	0.707201	0	-0.243244	0	0	0
0.32	-18.4058	461.373	-20.8364	0.224998	0.006	-0.179497	0	-1.6017	0	0	0	0	0.707201	0	-0.243244	0	0	0
0.33	-15.5901	466.374	-21.0938	0.228781	0.006	-0.178803	0	-1.82331	0	0	0	0	0.707201	0	-0.243244	0	0	0
0.34	-12.7717	474.157	-21.5206	0.232439	0.006	-0.178214	0	-2.0499	0	0	0	0	0.707201	0	-0.243244	0	0	0
0.35	-9.85368	484.459	-22.114	0.235973	0.006	-0.177716	0	-2.28011	0	0	0	0	0.707201	0	-0.243244	0	0	0
0.36	-6.74839	496.982	-22.8713	0.239392	0.006	-0.177296	0	-2.51132	0	0	0	0	0.707201	0	-0.243244	0	0	0
0.37	-3.3779	511.396	-23.786	0.242715	0.006	-0.176934	0	-2.7396	0	0	0	0	0.707201	0	-0.243244	0	0	0
0.38	0.325105	527.348	-24.8443	0.245965	0.006	-0.176614	0	-2.95981	0	0	0	0	0.707201	0	-0.243244	0	0	0
